{"title":"Daisies.1966.DVDRip.x264.AC3-KARiNA","uid":4996422,"size":1216337819,"categoryP":"video","categoryS":"movies","magnet":"?xt=urn:btih:cd4459bb551e60c8ce79fb8b958526bc4c56bb5b&amp;dn=Daisies.1966.DVDRip.x264.AC3-KARiNA&amp;tr=udp%3A%2F%2Ftracker.openbittorrent.com%3A80&amp;tr=udp%3A%2F%2Fopen.demonii.com%3A1337&amp;tr=udp%3A%2F%2Ftracker.coppersurfer.tk%3A6969&amp;tr=udp%3A%2F%2Fexodus.desync.com%3A6969","seeders":5,"leechers":1,"uploader":"realbastard","files":-1,"time":1247310551,"description":"88      a8P          db         88888888ba   88  888b      88         db         \n88    ,88'          d88b        88      &quot;8b  &quot;&quot;  8888b     88        d88b        \n88  ,88&quot;           d8'`8b       88      ,8P      88 `8b    88       d8'`8b       \n88,d88'           d8'  `8b      88aaaaaa8P'  88  88  `8b   88      d8'  `8b      \n8888&quot;88,         d8YaaaaY8b     88&quot;&quot;&quot;&quot;88'    88  88   `8b  88     d8YaaaaY8b     \n88P   Y8b       d8&quot;&quot;&quot;&quot;&quot;&quot;&quot;&quot;8b    88    `8b    88  88    `8b 88    d8&quot;&quot;&quot;&quot;&quot;&quot;&quot;&quot;8b    \n88     &quot;88,    d8'        `8b   88     `8b   88  88     `8888   d8'        `8b   \n88       Y8b  d8'          `8b  88      `8b  88  88      `888  d8'          `8b  \n-------------------------------------------------------------------------------\n                    -------------------------------------\n                 [ Daisies.1966.DVDRip.x264.AC3-KARiNA.mkv ]            \n                    -------------------------------------\n\n==================================[ Synopsis ]==================================                                                                \n\n   Daisies [Sedmikrasky] | Czech Republic | 1966 | Directed by Vera Chytilova\n                                  \nAn exercise in avant-garde cinema that is freshly humorous and accessible, Daisies \nis a dark comedy that eschews a traditional narrative for a Dadaist construction of events. Perpetually dressed in vibrantly corresponding costumes and dark black \neyeliner, Marie and Marie work together to create mischief. Seeing the world ruined and values worthless, they decide to &quot;go bad.&quot; They stage various dinner dates with stale old men, eat and drink merrily while telling lies, and, in a fast-motion Chaplinesque bit of slapstick, they hop trains and lose the men. Always looking for new adventures, the girls get drunk at a nightclub and get kicked out in a grand physical comedy style. They sit around their apartment and destroy things with a deadpan whimsy, apathetic to the men professing their love. Pursuing adventure about town, the two Maries take a dumbwaiter up to a banquet hall and proceed to delightfully demolish it. Using both black-and-white and color film stock, the girls' antics are enhanced by innovative special effects and camera tricks by cinematographer Jaroslav Kucera. Historically a key film in the Czech New Wave movement, Daisies was banned and director Vera Chytilova was forbidden to work until 1975. \n\n[ IMdB: http://www.imdb.com/title/tt0060959/ | Rating: 7.6 / 10 (1,026 votes) ]\n                                     \n=================================[ General ]===================================\n                                                                  \nComplete name                    : Daisies.1966.DVDRip.x264.AC3-KARiNA.mkv\nFormat                           : Matroska\nFile size                        : 1.13 GiB\nDuration                         : 1h 12mn\nOverall bit rate                 : 2 226 Kbps\nSource                           : Second Run PAL DVD9\n\n=================================[ Video ]=====================================\n                                 \n\nFormat                           : AVC\nCodec ID                         : V_MPEG4/ISO/AVC\nBit rate                         : 1 956 Kbps\nNominal bit rate                 : 2 000 Kbps\nWidth                            : 720 pixels\nHeight                           : 576 pixels\nDisplay aspect ratio             : 4/3\nFrame rate                       : 25.000 fps\nStandard                         : PAL\nResolution                       : 24 bits\nColorimetry                      : 4:2:0\nScan type                        : Progressive\nBits/(Pixel*Frame)               : 0.189\nStream size                      : 1 020 MiB (88%)\nTitle                            : Track 1\nWriting library                  : x264 core 65\n\n=================================[ Audio ]=====================================                              \n\nFormat                           : AC-3\nCodec ID                         : A_AC3\nBit rate mode                    : Constant\nBit rate                         : 224 Kbps\nChannel(s)                       : 2 channels\nChannel positions                : L R\nSampling rate                    : 48.0 KHz\nStream size                      : 117 MiB (10%)\nTitle                            : Track 1\nLanguage                         : Czech\n\n=================================[ Subtitles ]=================================\n\nFormat                           : UTF-8\nCodec ID                         : S_TEXT/UTF8\nTitle                            : Track 1\nLanguage                         : English\n\n=================================[ Chapters ]==================================\n\n00:00:00.000                     : :Chapter 1\n00:05:23.480                     : :Chapter 2\n00:13:37.480                     : :Chapter 3\n00:24:09.280                     : :Chapter 4\n00:35:28.920                     : :Chapter 5\n00:42:10.880                     : :Chapter 6\n00:46:43.880                     : :Chapter 7\n00:52:58.280                     : :Chapter 8\n00:57:54.680                     : :Chapter 9\n01:05:12.000                     : :Chapter 10\n\n=================================[ KARiNA ]===================================","torrent":{"xt":"urn:btih:cd4459bb551e60c8ce79fb8b958526bc4c56bb5b","amp;dn":"Daisies.1966.DVDRip.x264.AC3-KARiNA","amp;tr":["udp%3A%2F%2Ftracker.openbittorrent.com%3A80","udp%3A%2F%2Fopen.demonii.com%3A1337","udp%3A%2F%2Ftracker.coppersurfer.tk%3A6969","udp%3A%2F%2Fexodus.desync.com%3A6969"],"infoHash":"cd4459bb551e60c8ce79fb8b958526bc4c56bb5b","infoHashBuffer":{"type":"Buffer","data":[205,68,89,187,85,30,96,200,206,121,251,139,149,133,38,188,76,86,187,91]},"announce":[],"urlList":[]}}